<?xml version="1.0" encoding="UTF-8" standalone="no"?>
<!-- Created with Inkscape (http://www.inkscape.org/) -->

<svg
   xmlns:dc="http://purl.org/dc/elements/1.1/"
   xmlns:cc="http://creativecommons.org/ns#"
   xmlns:rdf="http://www.w3.org/1999/02/22-rdf-syntax-ns#"
   xmlns:svg="http://www.w3.org/2000/svg"
   xmlns="http://www.w3.org/2000/svg"
   version="1.1"
   width="687.42981"
   height="687.42981"
   id="svg2">
  <defs
     id="defs4" />
  <metadata
     id="metadata7">
    <rdf:RDF>
      <cc:Work
         rdf:about="">
        <dc:format>image/svg+xml</dc:format>
        <dc:type
           rdf:resource="http://purl.org/dc/dcmitype/StillImage" />
        <dc:title></dc:title>
      </cc:Work>
    </rdf:RDF>
  </metadata>
  <rect
     width="687.42981"
     height="687.42981"
     x="0"
     y="0"
     id="rect3675"
     style="fill:#000000;fill-opacity:1;fill-rule:nonzero;stroke:none" />
  <g
     transform="matrix(0.97364504,0,0,0.97364504,1.7287627,-146.99742)"
     id="g3658"
     style="fill:#ffffff;stroke:none">
    <path
       d="m 285.54314,550.4951 c -5.175,2.475 -10.575,3.825 -16.125,3.825 -16.65,0 -31.05,-11.25 -35.25,-27.15 -1.05,0 -1.95,0.15 -3,0.15 -5.1,0 -10.05,-0.75 -14.7,-2.025 -9.45,-2.475 -15.9,-11.025 -15.9,-20.625 0,-0.45 0,-0.675 0,-0.675 0,-0.225 0,-0.375 0,-0.675 0,-9.75 6.45,-18.3 15.9,-20.85 4.65,-1.35 9.6,-1.95 14.7,-1.95 1.05,0 1.95,0 3,0.075 4.2,-15.825 18.6,-26.925 35.25,-26.925 5.55,0 10.95,1.2 16.125,3.675 l 38.25,28.95 c -2.925,4.425 -4.725,9.525 -5.1,14.925 l -27.525,0 0,0 c -1.5,0 -2.7,1.2 -2.7,2.7 0,1.35 1.2,2.7 2.7,2.7 l 0,0.075 27.525,0 c 0.375,5.175 2.175,10.275 5.1,14.85 z"
       id="path3013"
       style="fill:#ffffff;stroke:none" />
    <path
       d="m 348.61814,471.2951 0,-23.475 c 0,-1.5 1.2,-2.7 2.7,-2.7 1.35,0 2.7,1.2 2.7,2.7 l 0,23.475 c 8.4,0.675 16.35,4.575 21.825,11.1 l 38.475,-30.975 c 3.3,-4.2 5.25,-9.45 5.25,-14.7 0,-13.05 -10.5,-23.4 -23.4,-23.4 -4.8,0 -9.3,1.35 -13.2,4.05 -1.5,-15.15 -14.25,-26.55 -29.4,-26.55 -0.9,0 -1.65,0 -2.25,0 -0.75,0 -1.5,0 -2.25,0 -15.3,0 -28.05,11.4 -29.625,26.55 -3.975,-2.7 -8.475,-4.05 -13.125,-4.05 -13.05,0 -23.4,10.35 -23.4,23.4 0,5.25 1.8,10.5 5.175,14.7 l 38.55,30.975 c 5.475,-6.525 13.425,-10.425 21.975,-11.1 z"
       id="path3033"
       style="fill:#ffffff;stroke:none" />
    <path
       d="m 355.66814,724.2701 c 47.85,0 94.35,-15.75 132.525,-44.925 l 3.975,-3.6 c 8.25,-8.325 12.9,-19.575 12.9,-31.125 0,-7.95 -2.25,-15.75 -6.375,-22.575 -15.77975,-15.375 -33.75295,-27.375 -44.7,-34.875 -2.175,8.25 -7.425,15.45 -14.7,20.25 -24.375,21.45 -55.725,33.45 -87.975,33.6 -32.4,-0.15 -63.75,-12.15 -88.2,-33.6 -7.2,-4.8 -12.6,-12 -14.85,-20.25 -15.73361,11.43277 -32.53122,20.73756 -44.7,34.875 -4.05,6.825 -6.15,14.625 -6.15,22.575 0,11.55 4.5,22.8 12.825,31.125 l 3.9,3.6 c 38.025,29.175 84.525,44.925 132.525,44.925 3.45,0 5.1,-0.15 4.5,-0.15 -0.75,0 0.9,0.15 4.5,0.15 z"
       id="path3055"
       style="fill:#ffffff;stroke:none" />
    <path
       d="M 492.16814,675.8201 z"
       id="path3059"
       style="fill:#ffffff;stroke:none" />
    <path
       d="m 383.79314,506.6951 27.525,0 c 1.35,-0.075 2.7,-1.425 2.7,-2.775 0,-1.5 -1.35,-2.7 -2.7,-2.7 l -27.525,0 c -0.375,-5.4 -2.175,-10.5 -5.1,-14.925 l 38.175,-28.95 c 4.95,-2.475 10.35,-3.675 16.05,-3.675 16.5,0 30.9,11.1 35.175,26.925 0.975,-0.075 1.875,-0.075 3.075,-0.075 4.95,0 9.9,0.6 14.625,1.95 9.375,2.55 15.975,11.1 15.975,20.85 0,0.3 -0.15,0.45 -0.15,0.675 0,0 0.15,0.225 0.15,0.675 0,9.6 -6.6,18.15 -15.975,20.625 -4.725,1.275 -9.675,2.025 -14.625,2.025 -1.2,0 -2.1,-0.15 -3.075,-0.15 -4.275,15.9 -18.675,27.15 -35.175,27.15 -5.7,0 -11.1,-1.35 -16.05,-3.825 l -38.175,-28.95 c 2.925,-4.575 4.725,-9.675 5.1,-14.85 z"
       id="path3083"
       style="fill:#ffffff;stroke:none" />
    <path
       d="M 214.21814,679.2701 z"
       id="path3143"
       style="fill:#ffffff;stroke:none" />
    <path
       d="m 282.91814,571.1201 c 0,12.9 10.35,23.4 23.4,23.4 4.65,0 9.15,-1.5 13.125,-4.125 1.575,15.075 14.325,26.625 29.625,26.625 0.75,0 1.5,-0.15 2.25,-0.15 0.6,0 1.35,0.15 2.25,0.15 15.15,0 27.9,-11.55 29.4,-26.625 3.9,2.625 8.4,4.125 13.2,4.125 12.9,0 23.4,-10.5 23.4,-23.4 0,-5.4 -1.95,-10.65 -5.25,-14.775 l -38.475,-30.975 c -5.475,6.45 -13.425,10.35 -21.825,11.1 l 0,23.4 0,0 c 0,1.35 -1.2,2.7 -2.7,2.7 -1.5,0 -2.7,-1.35 -2.7,-2.7 l 0,0 0,-23.4 c -8.55,-0.75 -16.5,-4.65 -21.975,-11.1 l -38.55,30.975 c -3.375,4.125 -5.175,9.375 -5.175,14.775 z"
       id="path3157"
       style="fill:#ffffff;stroke:none" />
    <path
       d="m 263.11814,400.3451 c -7.2,4.725 -12.6,11.925 -14.85,20.175 -15.67762,-11.54475 -32.62323,-20.55354 -44.7,-34.875 -4.05,-6.825 -6.15,-14.625 -6.15,-22.425 0,-11.7 4.5,-22.95 12.75,-31.275 9.15,-8.625 19.65,-15.825 31.05,-21.15 32.1,-17.775 68.4,-27.075 105.45,-27.075 3.45,0 4.95,0 4.5,0 -0.6,0 0.9,0 4.5,0 47.85,0 94.35,15.6 132.525,44.7 l 0.075,0 3.9,3.6 c 8.25,8.25 12.9,19.5 12.9,31.2 0,7.8 -2.25,15.6 -6.375,22.425 -11.625,12.92376 -27.075,24.35832 -44.7,34.875 -2.175,-8.25 -7.425,-15.45 -14.7,-20.175 -24.375,-21.375 -55.725,-33.375 -87.975,-33.525 -32.4,0.15 -63.75,12.15 -88.2,33.525 z"
       id="path3171"
       style="fill:#ffffff;stroke:none" />
    <path
       d="m 353.56814,375.3701 c 34.35,0 66.9,15.3 88.8,41.7 0.9,1.8 1.35,3.75 1.35,5.7 0,5.1 -3.15,9.75 -7.95,11.7 -1.05,0.45 -2.1,0.75 -3.15,0.75 -4.65,0 -8.4,-3.9 -8.4,-8.4 0,-4.65 3.75,-8.4 8.4,-8.4 0,0 0.15,0 0.375,0 -21.975,-21.15 -51.225,-33.45 -81.75,-34.2 -30.675,0.75 -59.925,13.05 -81.9,34.2 0.225,0 0.375,0 0.525,0 4.5,0 8.4,3.75 8.4,8.4 0,4.5 -3.9,8.4 -8.4,8.4 -1.2,0 -2.25,-0.3 -3.3,-0.75 -4.8,-1.95 -7.8,-6.6 -7.8,-11.7 0,-1.95 0.3,-3.9 1.2,-5.7 21.9,-26.4 54.45,-41.7 88.95,-41.7 1.8,0 3,0 2.325,0 -0.825,0 0.375,0 2.325,0 z"
       id="path3177"
       style="fill:#ffffff;stroke:none" />
    <path
       d="m 237.54314,442.2701 c 1.275,5.1 5.925,8.85 11.175,9.15 0.15,0 0.3,0.15 0.6,0.15 3.45,0 6.45,-2.7 6.825,-6.15 0.075,-0.6 0.225,-1.2 0.225,-1.65 0,-7.2 -5.85,-12.9 -12.9,-12.9 -0.6,0 -1.05,0 -1.5,0.075 -33.6,8.475 -57.3,38.475 -57.9,73.05 0.6,34.425 24.3,64.425 57.9,72.75 0.45,-0.075 0.9,0.075 1.5,0.075 7.05,0 12.9,-5.85 12.9,-12.9 0,-0.6 -0.15,-1.2 -0.225,-1.725 -0.375,-3.375 -3.375,-5.925 -6.825,-5.925 -0.3,0 -0.45,0 -0.6,0 -5.25,0.3 -9.9,4.05 -11.175,9.15 -26.175,-9.15 -44.025,-33.9 -44.325,-61.5 0.3,-27.75 18.15,-52.5 44.325,-61.65 z"
       id="path3179"
       style="fill:#ffffff;stroke:none" />
    <path
       d="m 175.66814,503.9951 c 0.9,-39.075 28.65,-72.375 66.975,-80.325 -21.0632,-12.1559 -37.04845,-23.81327 -58.125,-28.2 -4.65,-0.6 -9.45,-0.9 -14.25,-0.9 -57.75,0 -104.549998,46.8 -104.549998,104.55 0,1.65 0,3.3 0,4.875 0,1.425 0,3.075 0,4.875 0,57.6 46.799998,104.55 104.549998,104.55 4.8,0 9.6,-0.45 14.25,-1.05 21.1917,-4.7166 39.36149,-18.17702 58.125,-28.2 -38.325,-7.95 -66.075,-41.25 -66.975,-80.175 z"
       id="path3183"
       style="fill:#ffffff;stroke:none" />
    <path
       d="m 532.21814,394.5701 c 57.75,0 104.55,46.8 104.55,104.55 0,1.65 -0.15,3.3 -0.15,4.875 0,1.425 0.15,3.075 0.15,4.875 0,57.6 -46.8,104.55 -104.55,104.55 -4.95,0 -9.75,-0.45 -14.4,-1.05 -21.6,-5.43042 -41.7,-17.7372 -58.125,-28.2 38.325,-7.95 66.075,-41.25 66.975,-80.175 -0.9,-39.075 -28.65,-72.375 -66.975,-80.325 18.14458,-10.96084 37.50053,-22.04894 58.125,-28.2 4.65,-0.6 9.45,-0.9 14.4,-0.9 z"
       id="path3203"
       style="fill:#ffffff;stroke:none" />
    <path
       d="m 351.24314,623.6201 c 30.525,-0.75 59.775,-12.9 81.75,-34.275 -0.225,0.075 -0.375,0.075 -0.375,0.075 -4.65,0 -8.4,-3.9 -8.4,-8.4 0,-4.65 3.75,-8.4 8.4,-8.4 1.05,0 2.1,0.15 3.15,0.6 4.8,1.95 7.95,6.6 7.95,11.85 0,1.8 -0.45,3.75 -1.35,5.625 -21.9,26.475 -54.45,41.925 -88.8,41.925 -1.95,0 -2.7,-0.15 -2.325,-0.15 0.225,0 -0.525,0.15 -2.325,0.15 -34.5,0 -67.05,-15.45 -88.95,-41.925 -0.9,-1.875 -1.2,-3.825 -1.2,-5.625 0,-5.25 3,-9.9 7.8,-11.85 1.05,-0.45 2.1,-0.6 3.3,-0.6 4.5,0 8.4,3.75 8.4,8.4 0,4.5 -3.9,8.4 -8.4,8.4 -0.15,0 -0.3,0 -0.525,-0.075 21.975,21.375 51.225,33.525 81.9,34.275 z"
       id="path3213"
       style="fill:#ffffff;stroke:none" />
    <path
       d="m 464.71814,442.2701 c -1.35,5.1 -6,8.85 -11.175,9.15 -0.075,0 -0.225,0.15 -0.375,0.15 -3.6,0 -6.6,-2.7 -6.975,-6.15 -0.075,-0.6 -0.075,-1.2 -0.075,-1.65 0,-7.2 5.7,-12.9 12.9,-12.9 0.45,0 0.9,0 1.35,0.075 33.6,8.475 57.3,38.475 57.9,73.05 -0.6,34.425 -24.3,64.425 -57.9,72.75 -0.45,-0.075 -0.9,0.075 -1.35,0.075 -7.2,0 -12.9,-5.85 -12.9,-12.9 0,-0.6 0,-1.2 0.075,-1.725 0.375,-3.375 3.375,-5.925 6.975,-5.925 0.15,0 0.3,0 0.375,0 5.175,0.3 9.825,4.05 11.175,9.15 26.25,-9.15 44.1,-33.9 44.4,-61.5 -0.3,-27.75 -18.15,-52.5 -44.4,-61.65 z"
       id="path3217"
       style="fill:#ffffff;stroke:none" />
    <path
       d="m 351.16814,528.86693 c 13.95,0 25.2,-11.25 25.2,-25.05 l 0,-0.0468 0,0.0234 c 0,-13.82341 -11.25,-25.07341 -25.2,-25.07341 -13.95,0 -25.05,11.25 -25.05,25.07341 0,13.8234 11.1,25.0734 25.05,25.0734 z"
       id="path3650"
       style="fill:#ffffff;stroke:none" />
  </g>
</svg>
